G04 #@! TF.FileFunction,Soldermask,Top*
%FSLAX46Y46*%
G04 Gerber Fmt 4.6, Leading zero omitted, Abs format (unit mm)*
G04 Created by KiCad (PCBNEW 4.0.2+dfsg1-stable) date Mon 26 Aug 2019 07:35:53 PM UTC*
%MOMM*%
G01*
G04 APERTURE LIST*
%ADD10C,0.100000*%
%ADD11R,2.400000X2.400000*%
%ADD12C,2.400000*%
%ADD13R,2.127200X2.432000*%
%ADD14O,2.127200X2.432000*%
%ADD15C,2.635200*%
%ADD16C,1.924000*%
%ADD17R,1.900000X1.650000*%
%ADD18R,1.900000X1.700000*%
%ADD19R,0.850000X1.850000*%
%ADD20R,2.432000X2.432000*%
%ADD21O,2.432000X2.432000*%
%ADD22R,1.400000X1.600000*%
%ADD23R,1.600000X1.400000*%
G04 APERTURE END LIST*
D10*
D11*
X152933400Y-91948000D03*
D12*
X150393400Y-91948000D03*
D13*
X143510000Y-116586000D03*
D14*
X146050000Y-116586000D03*
X148590000Y-116586000D03*
D13*
X153289000Y-116103400D03*
D14*
X155829000Y-116103400D03*
X158369000Y-116103400D03*
D15*
X153156920Y-95011240D03*
D13*
X145450560Y-94833440D03*
D14*
X147990560Y-94833440D03*
X150530560Y-94833440D03*
D16*
X158877000Y-97663000D03*
X158877000Y-95163000D03*
X158877000Y-100163000D03*
X141986000Y-71374000D03*
X141986000Y-73914000D03*
X141986000Y-76454000D03*
X141986000Y-78994000D03*
X141986000Y-81534000D03*
X141986000Y-84074000D03*
X141986000Y-86614000D03*
X141986000Y-89154000D03*
D17*
X157500000Y-86106000D03*
X160000000Y-86106000D03*
X157500000Y-89408000D03*
X160000000Y-89408000D03*
X157500000Y-74168000D03*
X160000000Y-74168000D03*
D18*
X160100000Y-71120000D03*
X157400000Y-71120000D03*
D19*
X157775000Y-82718000D03*
X158425000Y-82718000D03*
X159075000Y-82718000D03*
X159725000Y-82718000D03*
X159725000Y-78318000D03*
X159075000Y-78318000D03*
X158425000Y-78318000D03*
X157775000Y-78318000D03*
D18*
X145335000Y-91897200D03*
X148035000Y-91897200D03*
D20*
X156972000Y-92202000D03*
D21*
X159512000Y-92202000D03*
D20*
X157810200Y-104952800D03*
D21*
X157810200Y-107492800D03*
D20*
X157810200Y-112471200D03*
D21*
X157810200Y-109931200D03*
D11*
X154379040Y-98430840D03*
D22*
X151429040Y-98030840D03*
X148529040Y-98030840D03*
X145629040Y-98030840D03*
D11*
X142679040Y-98430840D03*
D23*
X142379040Y-103080840D03*
X142379040Y-105780840D03*
X142379040Y-108480840D03*
D11*
X142679040Y-113130840D03*
D22*
X145629040Y-113530840D03*
X148529040Y-113530840D03*
X151429040Y-113530840D03*
D11*
X154379040Y-113130840D03*
D23*
X154679040Y-108480840D03*
X154679040Y-105780840D03*
X154679040Y-103080840D03*
D11*
X149829040Y-104480840D03*
X147229040Y-104480840D03*
X147229040Y-107080840D03*
X149829040Y-107080840D03*
M02*
