M48
;DRILL file {KiCad 4.0.2+dfsg1-stable} date Mon 26 Aug 2019 07:35:38 PM UTC
;FORMAT={-:-/ absolute / inch / decimal}
FMAT,2
INCH,TZ
T1C0.030
T2C0.039
T3C0.040
%
G90
G05
M72
T1
X5.59Y-2.81
X5.59Y-2.91
X5.59Y-3.01
X5.59Y-3.11
X5.59Y-3.21
X5.59Y-3.31
X5.59Y-3.41
X5.59Y-3.51
X6.255Y-3.7466
X6.255Y-3.845
X6.255Y-3.9434
T2
X5.921Y-3.62
X6.021Y-3.62
T3
X5.65Y-4.59
X5.7264Y-3.7336
X5.75Y-4.59
X5.8264Y-3.7336
X5.85Y-4.59
X5.9264Y-3.7336
X6.0298Y-3.7406
X6.035Y-4.571
X6.135Y-4.571
X6.18Y-3.63
X6.213Y-4.132
X6.213Y-4.232
X6.213Y-4.328
X6.213Y-4.428
X6.235Y-4.571
X6.28Y-3.63
T0
M30
