G04 #@! TF.FileFunction,Legend,Top*
%FSLAX46Y46*%
G04 Gerber Fmt 4.6, Leading zero omitted, Abs format (unit mm)*
G04 Created by KiCad (PCBNEW 4.0.2+dfsg1-stable) date Mon 26 Aug 2019 07:35:53 PM UTC*
%MOMM*%
G01*
G04 APERTURE LIST*
%ADD10C,0.100000*%
%ADD11C,0.300000*%
%ADD12C,0.150000*%
%ADD13C,0.200000*%
G04 APERTURE END LIST*
D10*
D11*
X144613857Y-82917571D02*
X144613857Y-81417571D01*
X145113857Y-82489000D01*
X145613857Y-81417571D01*
X145613857Y-82917571D01*
X146328143Y-82917571D02*
X146328143Y-81917571D01*
X146328143Y-81417571D02*
X146256714Y-81489000D01*
X146328143Y-81560429D01*
X146399571Y-81489000D01*
X146328143Y-81417571D01*
X146328143Y-81560429D01*
X147042429Y-81917571D02*
X147042429Y-82917571D01*
X147042429Y-82060429D02*
X147113857Y-81989000D01*
X147256715Y-81917571D01*
X147471000Y-81917571D01*
X147613857Y-81989000D01*
X147685286Y-82131857D01*
X147685286Y-82917571D01*
X148399572Y-82917571D02*
X148399572Y-81917571D01*
X148399572Y-81417571D02*
X148328143Y-81489000D01*
X148399572Y-81560429D01*
X148471000Y-81489000D01*
X148399572Y-81417571D01*
X148399572Y-81560429D01*
X149613858Y-82131857D02*
X149828144Y-82203286D01*
X149899572Y-82274714D01*
X149971001Y-82417571D01*
X149971001Y-82631857D01*
X149899572Y-82774714D01*
X149828144Y-82846143D01*
X149685286Y-82917571D01*
X149113858Y-82917571D01*
X149113858Y-81417571D01*
X149613858Y-81417571D01*
X149756715Y-81489000D01*
X149828144Y-81560429D01*
X149899572Y-81703286D01*
X149899572Y-81846143D01*
X149828144Y-81989000D01*
X149756715Y-82060429D01*
X149613858Y-82131857D01*
X149113858Y-82131857D01*
X150828144Y-82917571D02*
X150685286Y-82846143D01*
X150613858Y-82774714D01*
X150542429Y-82631857D01*
X150542429Y-82203286D01*
X150613858Y-82060429D01*
X150685286Y-81989000D01*
X150828144Y-81917571D01*
X151042429Y-81917571D01*
X151185286Y-81989000D01*
X151256715Y-82060429D01*
X151328144Y-82203286D01*
X151328144Y-82631857D01*
X151256715Y-82774714D01*
X151185286Y-82846143D01*
X151042429Y-82917571D01*
X150828144Y-82917571D01*
X151756715Y-81917571D02*
X152328144Y-81917571D01*
X151971001Y-81417571D02*
X151971001Y-82703286D01*
X152042429Y-82846143D01*
X152185287Y-82917571D01*
X152328144Y-82917571D01*
X152756715Y-82846143D02*
X152899572Y-82917571D01*
X153185287Y-82917571D01*
X153328144Y-82846143D01*
X153399572Y-82703286D01*
X153399572Y-82631857D01*
X153328144Y-82489000D01*
X153185287Y-82417571D01*
X152971001Y-82417571D01*
X152828144Y-82346143D01*
X152756715Y-82203286D01*
X152756715Y-82131857D01*
X152828144Y-81989000D01*
X152971001Y-81917571D01*
X153185287Y-81917571D01*
X153328144Y-81989000D01*
X149471001Y-84317571D02*
X149828144Y-85317571D01*
X150185286Y-84317571D01*
X151042429Y-83817571D02*
X151185286Y-83817571D01*
X151328143Y-83889000D01*
X151399572Y-83960429D01*
X151471001Y-84103286D01*
X151542429Y-84389000D01*
X151542429Y-84746143D01*
X151471001Y-85031857D01*
X151399572Y-85174714D01*
X151328143Y-85246143D01*
X151185286Y-85317571D01*
X151042429Y-85317571D01*
X150899572Y-85246143D01*
X150828143Y-85174714D01*
X150756715Y-85031857D01*
X150685286Y-84746143D01*
X150685286Y-84389000D01*
X150756715Y-84103286D01*
X150828143Y-83960429D01*
X150899572Y-83889000D01*
X151042429Y-83817571D01*
X152113857Y-83960429D02*
X152185286Y-83889000D01*
X152328143Y-83817571D01*
X152685286Y-83817571D01*
X152828143Y-83889000D01*
X152899572Y-83960429D01*
X152971000Y-84103286D01*
X152971000Y-84246143D01*
X152899572Y-84460429D01*
X152042429Y-85317571D01*
X152971000Y-85317571D01*
D12*
X153132400Y-90634000D02*
X153132400Y-90834000D01*
X153132400Y-93228000D02*
X153132400Y-93048000D01*
X149904656Y-92917643D02*
G75*
G03X153132400Y-93234000I1727744J1003643D01*
G01*
X150580394Y-93047068D02*
G75*
G03X152683400Y-93048000I1052006J1133068D01*
G01*
X153119620Y-90607274D02*
G75*
G03X149882400Y-90954000I-1497220J-1306726D01*
G01*
X152646289Y-90834747D02*
G75*
G03X150598400Y-90854000I-1013889J-1079253D01*
G01*
X144780000Y-117856000D02*
X149860000Y-117856000D01*
X149860000Y-117856000D02*
X149860000Y-115316000D01*
X149860000Y-115316000D02*
X144780000Y-115316000D01*
X141960000Y-115036000D02*
X143510000Y-115036000D01*
X144780000Y-115316000D02*
X144780000Y-117856000D01*
X143510000Y-118136000D02*
X141960000Y-118136000D01*
X141960000Y-118136000D02*
X141960000Y-115036000D01*
X154559000Y-117373400D02*
X159639000Y-117373400D01*
X159639000Y-117373400D02*
X159639000Y-114833400D01*
X159639000Y-114833400D02*
X154559000Y-114833400D01*
X151739000Y-114553400D02*
X153289000Y-114553400D01*
X154559000Y-114833400D02*
X154559000Y-117373400D01*
X153289000Y-117653400D02*
X151739000Y-117653400D01*
X151739000Y-117653400D02*
X151739000Y-114553400D01*
X154986320Y-93283440D02*
X154986320Y-94833440D01*
X151886320Y-94833440D02*
X151886320Y-93283440D01*
X151886320Y-93283440D02*
X154986320Y-93283440D01*
X152166320Y-96103440D02*
X154706320Y-96103440D01*
X146720560Y-96103440D02*
X151800560Y-96103440D01*
X151800560Y-96103440D02*
X151800560Y-93563440D01*
X151800560Y-93563440D02*
X146720560Y-93563440D01*
X143900560Y-93283440D02*
X145450560Y-93283440D01*
X146720560Y-93563440D02*
X146720560Y-96103440D01*
X145450560Y-96383440D02*
X143900560Y-96383440D01*
X143900560Y-96383440D02*
X143900560Y-93283440D01*
D13*
X157127000Y-93413000D02*
X157127000Y-101913000D01*
X160627000Y-93413000D02*
X160627000Y-101913000D01*
D12*
X155424000Y-87884000D02*
G75*
G03X155424000Y-87884000I-1500000J0D01*
G01*
X155424000Y-72644000D02*
G75*
G03X155424000Y-72644000I-1500000J0D01*
G01*
X140208000Y-69850000D02*
G75*
G03X140208000Y-69850000I-254000J0D01*
G01*
D13*
X156464000Y-70104000D02*
X156464000Y-90424000D01*
X140716000Y-70104000D02*
X140716000Y-90424000D01*
D12*
X159250000Y-85256000D02*
X158250000Y-85256000D01*
X158250000Y-86956000D02*
X159250000Y-86956000D01*
X159250000Y-88558000D02*
X158250000Y-88558000D01*
X158250000Y-90258000D02*
X159250000Y-90258000D01*
X159250000Y-73318000D02*
X158250000Y-73318000D01*
X158250000Y-75018000D02*
X159250000Y-75018000D01*
X158150000Y-70245000D02*
X159350000Y-70245000D01*
X159350000Y-71995000D02*
X158150000Y-71995000D01*
X157075000Y-82193000D02*
X157325000Y-82193000D01*
X157075000Y-78843000D02*
X157325000Y-78843000D01*
X160425000Y-78843000D02*
X160175000Y-78843000D01*
X160425000Y-82193000D02*
X160175000Y-82193000D01*
X157075000Y-82193000D02*
X157075000Y-78843000D01*
X160425000Y-82193000D02*
X160425000Y-78843000D01*
X157325000Y-82193000D02*
X157325000Y-83443000D01*
X147285000Y-92772200D02*
X146085000Y-92772200D01*
X146085000Y-91022200D02*
X147285000Y-91022200D01*
X158242000Y-90932000D02*
X160782000Y-90932000D01*
X155422000Y-90652000D02*
X156972000Y-90652000D01*
X158242000Y-90932000D02*
X158242000Y-93472000D01*
X156972000Y-93752000D02*
X155422000Y-93752000D01*
X155422000Y-93752000D02*
X155422000Y-90652000D01*
X158242000Y-93472000D02*
X160782000Y-93472000D01*
X160782000Y-93472000D02*
X160782000Y-90932000D01*
X159080200Y-106222800D02*
X159080200Y-108762800D01*
X159360200Y-103402800D02*
X159360200Y-104952800D01*
X159080200Y-106222800D02*
X156540200Y-106222800D01*
X156260200Y-104952800D02*
X156260200Y-103402800D01*
X156260200Y-103402800D02*
X159360200Y-103402800D01*
X156540200Y-106222800D02*
X156540200Y-108762800D01*
X156540200Y-108762800D02*
X159080200Y-108762800D01*
X156540200Y-111201200D02*
X156540200Y-108661200D01*
X156260200Y-114021200D02*
X156260200Y-112471200D01*
X156540200Y-111201200D02*
X159080200Y-111201200D01*
X159360200Y-112471200D02*
X159360200Y-114021200D01*
X159360200Y-114021200D02*
X156260200Y-114021200D01*
X159080200Y-111201200D02*
X159080200Y-108661200D01*
X159080200Y-108661200D02*
X156540200Y-108661200D01*
X141979040Y-97630840D02*
X141979040Y-113930840D01*
X141979040Y-113930840D02*
X155079040Y-113930840D01*
X155079040Y-113930840D02*
X155079040Y-97630840D01*
X155079040Y-97630840D02*
X141979040Y-97630840D01*
X153719305Y-93924381D02*
X153719305Y-92924381D01*
X153957400Y-92924381D01*
X154100258Y-92972000D01*
X154195496Y-93067238D01*
X154243115Y-93162476D01*
X154290734Y-93352952D01*
X154290734Y-93495810D01*
X154243115Y-93686286D01*
X154195496Y-93781524D01*
X154100258Y-93876762D01*
X153957400Y-93924381D01*
X153719305Y-93924381D01*
X155243115Y-93924381D02*
X154671686Y-93924381D01*
X154957400Y-93924381D02*
X154957400Y-92924381D01*
X154862162Y-93067238D01*
X154766924Y-93162476D01*
X154671686Y-93210095D01*
X154361495Y-90660381D02*
X154361495Y-89660381D01*
X154932924Y-90660381D02*
X154504352Y-90088952D01*
X154932924Y-89660381D02*
X154361495Y-90231810D01*
X155090905Y-118689381D02*
X155090905Y-117689381D01*
X155471858Y-117689381D01*
X155567096Y-117737000D01*
X155614715Y-117784619D01*
X155662334Y-117879857D01*
X155662334Y-118022714D01*
X155614715Y-118117952D01*
X155567096Y-118165571D01*
X155471858Y-118213190D01*
X155090905Y-118213190D01*
X156614715Y-118689381D02*
X156043286Y-118689381D01*
X156329000Y-118689381D02*
X156329000Y-117689381D01*
X156233762Y-117832238D01*
X156138524Y-117927476D01*
X156043286Y-117975095D01*
X145311905Y-118714781D02*
X145311905Y-117714781D01*
X145692858Y-117714781D01*
X145788096Y-117762400D01*
X145835715Y-117810019D01*
X145883334Y-117905257D01*
X145883334Y-118048114D01*
X145835715Y-118143352D01*
X145788096Y-118190971D01*
X145692858Y-118238590D01*
X145311905Y-118238590D01*
X146264286Y-117810019D02*
X146311905Y-117762400D01*
X146407143Y-117714781D01*
X146645239Y-117714781D01*
X146740477Y-117762400D01*
X146788096Y-117810019D01*
X146835715Y-117905257D01*
X146835715Y-118000495D01*
X146788096Y-118143352D01*
X146216667Y-118714781D01*
X146835715Y-118714781D01*
X152698225Y-97571821D02*
X152698225Y-96571821D01*
X153079178Y-96571821D01*
X153174416Y-96619440D01*
X153222035Y-96667059D01*
X153269654Y-96762297D01*
X153269654Y-96905154D01*
X153222035Y-97000392D01*
X153174416Y-97048011D01*
X153079178Y-97095630D01*
X152698225Y-97095630D01*
X154126797Y-96905154D02*
X154126797Y-97571821D01*
X153888701Y-96524202D02*
X153650606Y-97238488D01*
X154269654Y-97238488D01*
X146617465Y-97444821D02*
X146617465Y-96444821D01*
X146998418Y-96444821D01*
X147093656Y-96492440D01*
X147141275Y-96540059D01*
X147188894Y-96635297D01*
X147188894Y-96778154D01*
X147141275Y-96873392D01*
X147093656Y-96921011D01*
X146998418Y-96968630D01*
X146617465Y-96968630D01*
X148093656Y-96444821D02*
X147617465Y-96444821D01*
X147569846Y-96921011D01*
X147617465Y-96873392D01*
X147712703Y-96825773D01*
X147950799Y-96825773D01*
X148046037Y-96873392D01*
X148093656Y-96921011D01*
X148141275Y-97016250D01*
X148141275Y-97254345D01*
X148093656Y-97349583D01*
X148046037Y-97397202D01*
X147950799Y-97444821D01*
X147712703Y-97444821D01*
X147617465Y-97397202D01*
X147569846Y-97349583D01*
X161440762Y-99758333D02*
X161488381Y-99615476D01*
X161488381Y-99377380D01*
X161440762Y-99282142D01*
X161393143Y-99234523D01*
X161297905Y-99186904D01*
X161202667Y-99186904D01*
X161107429Y-99234523D01*
X161059810Y-99282142D01*
X161012190Y-99377380D01*
X160964571Y-99567857D01*
X160916952Y-99663095D01*
X160869333Y-99710714D01*
X160774095Y-99758333D01*
X160678857Y-99758333D01*
X160583619Y-99710714D01*
X160536000Y-99663095D01*
X160488381Y-99567857D01*
X160488381Y-99329761D01*
X160536000Y-99186904D01*
X160488381Y-98853571D02*
X161488381Y-98615476D01*
X160774095Y-98424999D01*
X161488381Y-98234523D01*
X160488381Y-97996428D01*
X161488381Y-97091666D02*
X161488381Y-97663095D01*
X161488381Y-97377381D02*
X160488381Y-97377381D01*
X160631238Y-97472619D01*
X160726476Y-97567857D01*
X160774095Y-97663095D01*
X148082095Y-79716381D02*
X148082095Y-80525905D01*
X148129714Y-80621143D01*
X148177333Y-80668762D01*
X148272571Y-80716381D01*
X148463048Y-80716381D01*
X148558286Y-80668762D01*
X148605905Y-80621143D01*
X148653524Y-80525905D01*
X148653524Y-79716381D01*
X149653524Y-80716381D02*
X149082095Y-80716381D01*
X149367809Y-80716381D02*
X149367809Y-79716381D01*
X149272571Y-79859238D01*
X149177333Y-79954476D01*
X149082095Y-80002095D01*
X158329334Y-84812143D02*
X158281715Y-84859762D01*
X158138858Y-84907381D01*
X158043620Y-84907381D01*
X157900762Y-84859762D01*
X157805524Y-84764524D01*
X157757905Y-84669286D01*
X157710286Y-84478810D01*
X157710286Y-84335952D01*
X157757905Y-84145476D01*
X157805524Y-84050238D01*
X157900762Y-83955000D01*
X158043620Y-83907381D01*
X158138858Y-83907381D01*
X158281715Y-83955000D01*
X158329334Y-84002619D01*
X159281715Y-84907381D02*
X158710286Y-84907381D01*
X158996000Y-84907381D02*
X158996000Y-83907381D01*
X158900762Y-84050238D01*
X158805524Y-84145476D01*
X158710286Y-84193095D01*
X158583334Y-88241143D02*
X158535715Y-88288762D01*
X158392858Y-88336381D01*
X158297620Y-88336381D01*
X158154762Y-88288762D01*
X158059524Y-88193524D01*
X158011905Y-88098286D01*
X157964286Y-87907810D01*
X157964286Y-87764952D01*
X158011905Y-87574476D01*
X158059524Y-87479238D01*
X158154762Y-87384000D01*
X158297620Y-87336381D01*
X158392858Y-87336381D01*
X158535715Y-87384000D01*
X158583334Y-87431619D01*
X158964286Y-87431619D02*
X159011905Y-87384000D01*
X159107143Y-87336381D01*
X159345239Y-87336381D01*
X159440477Y-87384000D01*
X159488096Y-87431619D01*
X159535715Y-87526857D01*
X159535715Y-87622095D01*
X159488096Y-87764952D01*
X158916667Y-88336381D01*
X159535715Y-88336381D01*
X158456334Y-72874143D02*
X158408715Y-72921762D01*
X158265858Y-72969381D01*
X158170620Y-72969381D01*
X158027762Y-72921762D01*
X157932524Y-72826524D01*
X157884905Y-72731286D01*
X157837286Y-72540810D01*
X157837286Y-72397952D01*
X157884905Y-72207476D01*
X157932524Y-72112238D01*
X158027762Y-72017000D01*
X158170620Y-71969381D01*
X158265858Y-71969381D01*
X158408715Y-72017000D01*
X158456334Y-72064619D01*
X158789667Y-71969381D02*
X159408715Y-71969381D01*
X159075381Y-72350333D01*
X159218239Y-72350333D01*
X159313477Y-72397952D01*
X159361096Y-72445571D01*
X159408715Y-72540810D01*
X159408715Y-72778905D01*
X159361096Y-72874143D01*
X159313477Y-72921762D01*
X159218239Y-72969381D01*
X158932524Y-72969381D01*
X158837286Y-72921762D01*
X158789667Y-72874143D01*
X158456334Y-76144381D02*
X158123000Y-75668190D01*
X157884905Y-76144381D02*
X157884905Y-75144381D01*
X158265858Y-75144381D01*
X158361096Y-75192000D01*
X158408715Y-75239619D01*
X158456334Y-75334857D01*
X158456334Y-75477714D01*
X158408715Y-75572952D01*
X158361096Y-75620571D01*
X158265858Y-75668190D01*
X157884905Y-75668190D01*
X158837286Y-75239619D02*
X158884905Y-75192000D01*
X158980143Y-75144381D01*
X159218239Y-75144381D01*
X159313477Y-75192000D01*
X159361096Y-75239619D01*
X159408715Y-75334857D01*
X159408715Y-75430095D01*
X159361096Y-75572952D01*
X158789667Y-76144381D01*
X159408715Y-76144381D01*
X157861095Y-79843381D02*
X157861095Y-80652905D01*
X157908714Y-80748143D01*
X157956333Y-80795762D01*
X158051571Y-80843381D01*
X158242048Y-80843381D01*
X158337286Y-80795762D01*
X158384905Y-80748143D01*
X158432524Y-80652905D01*
X158432524Y-79843381D01*
X158813476Y-79843381D02*
X159432524Y-79843381D01*
X159099190Y-80224333D01*
X159242048Y-80224333D01*
X159337286Y-80271952D01*
X159384905Y-80319571D01*
X159432524Y-80414810D01*
X159432524Y-80652905D01*
X159384905Y-80748143D01*
X159337286Y-80795762D01*
X159242048Y-80843381D01*
X158956333Y-80843381D01*
X158861095Y-80795762D01*
X158813476Y-80748143D01*
X146518334Y-93746581D02*
X146185000Y-93270390D01*
X145946905Y-93746581D02*
X145946905Y-92746581D01*
X146327858Y-92746581D01*
X146423096Y-92794200D01*
X146470715Y-92841819D01*
X146518334Y-92937057D01*
X146518334Y-93079914D01*
X146470715Y-93175152D01*
X146423096Y-93222771D01*
X146327858Y-93270390D01*
X145946905Y-93270390D01*
X147470715Y-93746581D02*
X146899286Y-93746581D01*
X147185000Y-93746581D02*
X147185000Y-92746581D01*
X147089762Y-92889438D01*
X146994524Y-92984676D01*
X146899286Y-93032295D01*
X148232905Y-91003381D02*
X148232905Y-90003381D01*
X148613858Y-90003381D01*
X148709096Y-90051000D01*
X148756715Y-90098619D01*
X148804334Y-90193857D01*
X148804334Y-90336714D01*
X148756715Y-90431952D01*
X148709096Y-90479571D01*
X148613858Y-90527190D01*
X148232905Y-90527190D01*
X149661477Y-90003381D02*
X149471000Y-90003381D01*
X149375762Y-90051000D01*
X149328143Y-90098619D01*
X149232905Y-90241476D01*
X149185286Y-90431952D01*
X149185286Y-90812905D01*
X149232905Y-90908143D01*
X149280524Y-90955762D01*
X149375762Y-91003381D01*
X149566239Y-91003381D01*
X149661477Y-90955762D01*
X149709096Y-90908143D01*
X149756715Y-90812905D01*
X149756715Y-90574810D01*
X149709096Y-90479571D01*
X149661477Y-90431952D01*
X149566239Y-90384333D01*
X149375762Y-90384333D01*
X149280524Y-90431952D01*
X149232905Y-90479571D01*
X149185286Y-90574810D01*
X157072105Y-100305181D02*
X157072105Y-99305181D01*
X157453058Y-99305181D01*
X157548296Y-99352800D01*
X157595915Y-99400419D01*
X157643534Y-99495657D01*
X157643534Y-99638514D01*
X157595915Y-99733752D01*
X157548296Y-99781371D01*
X157453058Y-99828990D01*
X157072105Y-99828990D01*
X157976867Y-99305181D02*
X158643534Y-99305181D01*
X158214962Y-100305181D01*
X156692861Y-108754135D02*
X155692861Y-108754135D01*
X155692861Y-108373182D01*
X155740480Y-108277944D01*
X155788099Y-108230325D01*
X155883337Y-108182706D01*
X156026194Y-108182706D01*
X156121432Y-108230325D01*
X156169051Y-108277944D01*
X156216670Y-108373182D01*
X156216670Y-108754135D01*
X155692861Y-107849373D02*
X155692861Y-107230325D01*
X156073813Y-107563659D01*
X156073813Y-107420801D01*
X156121432Y-107325563D01*
X156169051Y-107277944D01*
X156264290Y-107230325D01*
X156502385Y-107230325D01*
X156597623Y-107277944D01*
X156645242Y-107325563D01*
X156692861Y-107420801D01*
X156692861Y-107706516D01*
X156645242Y-107801754D01*
X156597623Y-107849373D01*
X156031421Y-100312745D02*
X156840945Y-100312745D01*
X156936183Y-100265126D01*
X156983802Y-100217507D01*
X157031421Y-100122269D01*
X157031421Y-99931792D01*
X156983802Y-99836554D01*
X156936183Y-99788935D01*
X156840945Y-99741316D01*
X156031421Y-99741316D01*
X156126659Y-99312745D02*
X156079040Y-99265126D01*
X156031421Y-99169888D01*
X156031421Y-98931792D01*
X156079040Y-98836554D01*
X156126659Y-98788935D01*
X156221897Y-98741316D01*
X156317135Y-98741316D01*
X156459992Y-98788935D01*
X157031421Y-99360364D01*
X157031421Y-98741316D01*
X152645707Y-100607030D02*
X152645707Y-100130839D01*
X152931421Y-100702268D02*
X151931421Y-100368935D01*
X152931421Y-100035601D01*
X152931421Y-99702268D02*
X151931421Y-99702268D01*
X152381421Y-111364173D02*
X153381421Y-111126078D01*
X152667135Y-110935601D01*
X153381421Y-110745125D01*
X152381421Y-110507030D01*
X153381421Y-110126078D02*
X152381421Y-110126078D01*
X152857611Y-109316554D02*
X152857611Y-109649888D01*
X153381421Y-109649888D02*
X152381421Y-109649888D01*
X152381421Y-109173697D01*
X153381421Y-108792745D02*
X152381421Y-108792745D01*
X144407611Y-101037982D02*
X144407611Y-101371316D01*
X144931421Y-101371316D02*
X143931421Y-101371316D01*
X143931421Y-100895125D01*
X144836183Y-99942744D02*
X144883802Y-99990363D01*
X144931421Y-100133220D01*
X144931421Y-100228458D01*
X144883802Y-100371316D01*
X144788564Y-100466554D01*
X144693326Y-100514173D01*
X144502850Y-100561792D01*
X144359992Y-100561792D01*
X144169516Y-100514173D01*
X144074278Y-100466554D01*
X143979040Y-100371316D01*
X143931421Y-100228458D01*
X143931421Y-100133220D01*
X143979040Y-99990363D01*
X144026659Y-99942744D01*
X144836183Y-98942744D02*
X144883802Y-98990363D01*
X144931421Y-99133220D01*
X144931421Y-99228458D01*
X144883802Y-99371316D01*
X144788564Y-99466554D01*
X144693326Y-99514173D01*
X144502850Y-99561792D01*
X144359992Y-99561792D01*
X144169516Y-99514173D01*
X144074278Y-99466554D01*
X143979040Y-99371316D01*
X143931421Y-99228458D01*
X143931421Y-99133220D01*
X143979040Y-98990363D01*
X144026659Y-98942744D01*
M02*
